#N canvas 209 132 999 578 12;
#X obj 81 216 t f f;
#X obj 77 245 == 0;
#X obj 114 244 == 1;
#X obj 137 175 hradio 19 1 0 2 empty empty empty 0 -10 0 12 #fcfcfc #000000 #000000 0;
#X obj 355 227 pulqui~ 512;
#X obj 361 267 pulquilimiter~;
#X floatatom 110 123 5 0 0 0 - - - 0;
#X obj 497 189 / 100;
#X obj 165 122 tgl 19 0 empty empty empty 0 -10 0 12 #fcfcfc #000000 #000000 0 1;
#X obj 427 300 pulqui~ 512;
#X obj 433 340 pulquilimiter~;
#X obj 129 480 outlet~;
#X obj 221 481 outlet~;
#X obj 320 102 inlet~;
#X obj 458 104 inlet~;
#X obj 73 326 line~;
#X obj 125 325 line~;
#X obj 491 223 t f f;
#X obj 554 239 t f f;
#X msg 70 277 \$1 20;
#X msg 132 275 \$1 20;
#X obj 102 418 *~;
#X obj 165 417 *~;
#X obj 248 418 *~;
#X obj 311 417 *~;
#X text 102 101 thrs;
#X text 152 101 makeup;
#X text 128 153 bypass;
#X obj 380 15 loadbang;
#X msg 115 65 100;
#X msg 168 67 0;
#X obj 136 22 t b b;
#X connect 0 0 1 0;
#X connect 0 1 2 0;
#X connect 1 0 19 0;
#X connect 2 0 20 0;
#X connect 3 0 0 0;
#X connect 4 0 5 0;
#X connect 4 0 21 0;
#X connect 4 1 5 1;
#X connect 5 0 22 0;
#X connect 6 0 7 0;
#X connect 7 0 17 0;
#X connect 8 0 18 0;
#X connect 9 0 10 0;
#X connect 9 0 23 0;
#X connect 9 1 10 1;
#X connect 10 0 24 0;
#X connect 13 0 4 0;
#X connect 14 0 9 0;
#X connect 15 0 21 1;
#X connect 15 0 23 1;
#X connect 16 0 22 1;
#X connect 16 0 24 1;
#X connect 17 0 5 2;
#X connect 17 1 10 2;
#X connect 18 0 5 3;
#X connect 18 1 10 3;
#X connect 19 0 15 0;
#X connect 20 0 16 0;
#X connect 21 0 11 0;
#X connect 22 0 11 0;
#X connect 23 0 12 0;
#X connect 24 0 12 0;
#X connect 28 0 31 0;
#X connect 29 0 6 0;
#X connect 30 0 3 0;
#X connect 31 0 29 0;
#X connect 31 1 30 0;
#X coords 0 -1 1 1 100 100 2 100 100;
