#N canvas 209 132 999 578 12;
#X obj 121 533 dac~;
#X obj 166 449 *~ 1;
#X obj 342 153 readsf~;
#X obj 446 32 openpanel;
#X obj 408 65 symbol;
#X obj 446 9 bng 19 250 50 0 empty empty empty 0 -10 0 12 #fcfcfc #000000 #000000;
#X msg 406 90 open \$1;
#X obj 340 63 t f b;
#X obj 336 8 tgl 19 0 empty empty empty 0 -10 0 12 #fcfcfc #000000 #000000 0 1;
#X obj 102 418 *~ 1;
#X obj 57 361 t f f;
#X obj 53 390 == 0;
#X obj 90 389 == 1;
#X obj 57 335 hradio 19 1 0 2 empty empty empty 0 -10 0 12 #fcfcfc #000000 #000000 0;
#X msg 595 180 stop;
#X msg 588 153 open ./pulqui.wav \, start;
#X msg 464 56 symbol low.wav;
#X text 467 443 just some preliinary tests;
#X obj 578 207 writesf~ 2;
#X obj 854 14 loadbang;
#X msg 854 42 \; pd dsp 1 \;;
#X obj 234 82 osc~ 220;
#X obj 165 417 *~ 0;
#X floatatom 225 38 5 0 0 0 - - - 0;
#X obj 243 135 *~ 1;
#X floatatom 271 108 5 0 0 0 - - - 0;
#X obj 138 82 adc~ 1;
#X obj 292 281 pulquilimiter~;
#X floatatom 409 214 5 0 0 0 - - - 0;
#X obj 409 237 / 100;
#X obj 467 260 tgl 19 0 empty empty empty 0 -10 0 12 #fcfcfc #000000 #000000 0 1;
#X obj 294 183 pulqui~ 512;
#X connect 1 0 0 0;
#X connect 1 0 0 1;
#X connect 2 0 31 0;
#X connect 3 0 4 1;
#X connect 4 0 6 0;
#X connect 5 0 3 0;
#X connect 6 0 2 0;
#X connect 7 0 2 0;
#X connect 7 1 4 0;
#X connect 8 0 7 0;
#X connect 9 0 0 1;
#X connect 9 0 0 0;
#X connect 10 0 11 0;
#X connect 10 1 12 0;
#X connect 11 0 9 1;
#X connect 12 0 22 1;
#X connect 13 0 10 0;
#X connect 14 0 18 0;
#X connect 15 0 18 0;
#X connect 16 0 4 1;
#X connect 19 0 20 0;
#X connect 21 0 24 0;
#X connect 22 0 1 0;
#X connect 23 0 21 0;
#X connect 24 0 31 0;
#X connect 25 0 24 1;
#X connect 27 0 22 0;
#X connect 28 0 29 0;
#X connect 29 0 27 2;
#X connect 30 0 27 3;
#X connect 31 0 9 0;
#X connect 31 0 27 0;
#X connect 31 1 27 1;
