#N canvas 199 162 999 578 12;
#N canvas 361 199 768 489 sub 0;
#X obj 241 63 inlet~;
#X obj 90 121 bang~;
#X obj 95 376 outlet~;
#X obj 196 377 outlet~;
#X obj 197 251 tabplay~ \$0-arraypulqui;
#X obj 93 195 tabplay~ \$0-arraybase;
#X obj 276 124 pulqui~ \$0-arraypulqui;
#X obj 278 94 tabsend~ \$0-arraybase;
#X obj 198 343 /~ 4;
#X obj 95 342 /~ 4;
#N canvas 0 50 450 250 (subpatch) 0;
#X array array1 1 float 3;
#A 0 0.64285;
#X coords 0 1 1 -1 200 140 1;
#X restore 537 155 graph;
#X obj 93 152 t b b b;
#X obj 297 295 tabplay~ array1;
#X obj 295 374 outlet~;
#X obj 297 340 /~ 4;
#X obj 553 25 block~ 4096;
#X text 568 52 block~ 4096 4 1;
#X connect 0 0 6 0;
#X connect 0 0 7 0;
#X connect 1 0 11 0;
#X connect 4 0 8 0;
#X connect 5 0 9 0;
#X connect 8 0 3 0;
#X connect 9 0 2 0;
#X connect 11 0 5 0;
#X connect 11 1 4 0;
#X connect 11 2 12 0;
#X connect 12 0 14 0;
#X connect 14 0 13 0;
#X restore 183 188 pd sub;
#X obj 176 108 adc~;
#X obj 244 481 dac~;
#X obj 253 294 expr~ if ($v2 > $v3 \, $v1*($v3/$v2) \, $v1);
#X obj 532 261 sig~ 1;
#X obj 387 230 expr~ if ($v1==0 \, 0.01 \, $v1);
#X floatatom 620 192 5 0 0 0 - - - 0;
#X obj 646 319 expr (1-$f1)+0.998;
#X obj 620 235 t f f;
#X obj 251 438 *~ 1;
#X obj 481 19 array define \$0-arraypulqui 4096;
#X obj 751 20 array define \$0-arraybase 4096;
#X obj 231 158 readsf~;
#X obj 335 45 openpanel;
#X obj 297 70 symbol;
#X obj 335 14 bng 19 250 50 0 empty empty empty 0 -10 0 12 #fcfcfc #000000 #000000;
#X msg 259 117 open \$1;
#X obj 229 68 t f b;
#X obj 225 13 tgl 19 0 empty empty empty 0 -10 0 12 #fcfcfc #000000 #000000 0 1;
#X obj 54 394 *~ 1;
#X obj 13 344 *~ 1;
#X obj 76 343 *~ 1;
#X obj 83 285 t f f;
#X obj 79 314 == 0;
#X obj 116 313 == 1;
#X obj 83 259 hradio 19 1 0 2 empty empty empty 0 -10 0 12 #fcfcfc #000000 #000000 0;
#X msg 357 198 stop;
#X obj 249 249 writesf~ 3;
#X msg 350 171 open ./pulqui.wav \, start;
#X msg 377 92 symbol low.wav;
#X text 467 443 just some preliinary tests;
#X connect 0 0 3 0;
#X connect 0 0 20 0;
#X connect 0 0 27 0;
#X connect 0 1 5 0;
#X connect 0 1 27 1;
#X connect 0 2 27 2;
#X connect 1 0 0 0;
#X connect 3 0 21 0;
#X connect 4 0 3 2;
#X connect 5 0 3 1;
#X connect 6 0 8 0;
#X connect 7 0 9 1;
#X connect 8 0 4 0;
#X connect 8 1 7 0;
#X connect 9 0 2 0;
#X connect 9 0 2 1;
#X connect 12 0 0 0;
#X connect 13 0 14 1;
#X connect 14 0 16 0;
#X connect 15 0 13 0;
#X connect 16 0 12 0;
#X connect 17 0 12 0;
#X connect 17 1 14 0;
#X connect 18 0 17 0;
#X connect 19 0 2 1;
#X connect 19 0 2 0;
#X connect 20 0 19 0;
#X connect 21 0 9 0;
#X connect 22 0 23 0;
#X connect 22 1 24 0;
#X connect 23 0 20 1;
#X connect 24 0 21 1;
#X connect 25 0 22 0;
#X connect 26 0 27 0;
#X connect 28 0 27 0;
#X connect 29 0 14 1;
