#N canvas 199 180 999 578 12;
#N canvas 361 199 768 489 sub 0;
#X obj 106 80 inlet~;
#X obj 95 376 outlet~;
#X obj 196 377 outlet~;
#X obj 553 25 block~ 4096;
#X text 568 52 block~ 4096 4 1;
#X obj 106 136 pulqui~;
#X connect 0 0 5 0;
#X connect 5 0 1 0;
#X connect 5 1 2 0;
#X restore 183 188 pd sub;
#X obj 244 481 dac~;
#X obj 253 294 expr~ if ($v2 > $v3 \, $v1*($v3/$v2) \, $v1);
#X obj 532 261 sig~ 1;
#X floatatom 622 160 5 0 0 0 - - - 0;
#X obj 646 319 expr (1-$f1)+0.998;
#X obj 620 235 t f f;
#X obj 251 438 *~ 1;
#X obj 231 158 readsf~;
#X obj 335 45 openpanel;
#X obj 297 70 symbol;
#X obj 335 14 bng 19 250 50 0 empty empty empty 0 -10 0 12 #fcfcfc #000000 #000000;
#X msg 259 117 open \$1;
#X obj 229 68 t f b;
#X obj 225 13 tgl 19 0 empty empty empty 0 -10 0 12 #fcfcfc #000000 #000000 0 1;
#X obj 54 394 *~ 1;
#X obj 13 344 *~ 1;
#X obj 83 285 t f f;
#X obj 79 314 == 0;
#X obj 116 313 == 1;
#X obj 83 259 hradio 19 1 0 2 empty empty empty 0 -10 0 12 #fcfcfc #000000 #000000 0;
#X msg 357 198 stop;
#X msg 350 171 open ./pulqui.wav \, start;
#X msg 377 92 symbol low.wav;
#X text 467 443 just some preliinary tests;
#X obj 249 249 writesf~ 2;
#X obj 663 52 loadbang;
#X msg 661 95 \; pd dsp 1 \;;
#X obj 350 355 snapshot~;
#X floatatom 350 379 5 0 0 0 - - - 0;
#X obj 434 329 bng 19 250 50 0 empty empty empty 0 -10 0 12 #fcfcfc #000000 #000000;
#X obj 165 96 osc~ 220;
#X obj 622 183 / 100;
#X obj 76 343 *~ 0;
#X connect 0 0 2 0;
#X connect 0 0 16 0;
#X connect 0 0 25 0;
#X connect 0 1 25 1;
#X connect 0 1 28 0;
#X connect 0 1 2 1;
#X connect 2 0 33 0;
#X connect 3 0 2 2;
#X connect 4 0 32 0;
#X connect 5 0 7 1;
#X connect 6 0 3 0;
#X connect 6 1 5 0;
#X connect 7 0 1 0;
#X connect 7 0 1 1;
#X connect 8 0 0 0;
#X connect 9 0 10 1;
#X connect 10 0 12 0;
#X connect 11 0 9 0;
#X connect 12 0 8 0;
#X connect 13 0 8 0;
#X connect 13 1 10 0;
#X connect 14 0 13 0;
#X connect 15 0 1 1;
#X connect 15 0 1 0;
#X connect 16 0 15 0;
#X connect 17 0 18 0;
#X connect 17 1 19 0;
#X connect 18 0 16 1;
#X connect 19 0 33 1;
#X connect 20 0 17 0;
#X connect 21 0 25 0;
#X connect 22 0 25 0;
#X connect 23 0 10 1;
#X connect 26 0 27 0;
#X connect 28 0 29 0;
#X connect 30 0 28 0;
#X connect 31 0 0 0;
#X connect 32 0 6 0;
#X connect 33 0 7 0;
